<svg width="142" height="46" viewBox="0 0 142 46" fill="none" xmlns="http://www.w3.org/2000/svg">
<path d="M0 10.5C0 7.23841 0 5.60761 0.532843 4.32122C1.2433 2.60602 2.60602 1.2433 4.32122 0.532843C5.60761 0 7.23841 0 10.5 0H131.5C134.762 0 136.392 0 137.679 0.532843C139.394 1.2433 140.757 2.60602 141.467 4.32122C142 5.60761 142 7.23841 142 10.5V35.5C142 38.7616 142 40.3924 141.467 41.6788C140.757 43.394 139.394 44.7567 137.679 45.4672C136.392 46 134.762 46 131.5 46H10.5C7.23841 46 5.60761 46 4.32122 45.4672C2.60602 44.7567 1.2433 43.394 0.532843 41.6788C0 40.3924 0 38.7616 0 35.5V10.5Z" fill="black"/>
<path d="M96.4722 22.0812V24.7158H94.7729V26.4436H96.4722V32.3144C96.4722 34.319 97.4054 35.1209 99.753 35.1209C100.166 35.1209 100.558 35.0731 100.902 35.0159V33.3071C100.608 33.3358 100.421 33.3549 100.097 33.3549C99.0458 33.3549 98.5841 32.8776 98.5841 31.7893V26.4436H100.902V24.7158H98.5841V22.0812H96.4722Z" fill="white"/>
<path d="M106.883 35.264C110.006 35.264 111.922 33.2308 111.922 29.8611C111.922 26.5105 109.996 24.4676 106.883 24.4676C103.759 24.4676 101.834 26.5105 101.834 29.8611C101.834 33.2308 103.749 35.264 106.883 35.264ZM106.883 33.4408C105.046 33.4408 104.014 32.133 104.014 29.8611C104.014 27.6082 105.046 26.2909 106.883 26.2909C108.71 26.2909 109.751 27.6082 109.751 29.8611C109.751 32.1234 108.71 33.4408 106.883 33.4408Z" fill="white"/>
<path d="M113.56 35.0636H115.672V28.9256C115.672 27.465 116.802 26.4818 118.403 26.4818C118.776 26.4818 119.405 26.5486 119.582 26.6059V24.5822C119.356 24.5249 118.953 24.4963 118.639 24.4963C117.244 24.4963 116.055 25.2409 115.751 26.2623H115.594V24.6681H113.56V35.0636Z" fill="white"/>
<path d="M124.825 26.2145C126.387 26.2145 127.409 27.2741 127.458 28.9065H122.055C122.173 27.2837 123.264 26.2145 124.825 26.2145ZM127.448 32.2571C127.055 33.0685 126.181 33.5171 124.904 33.5171C123.214 33.5171 122.124 32.3621 122.055 30.5388V30.4243H129.609V29.7083C129.609 26.4436 127.811 24.4676 124.835 24.4676C121.82 24.4676 119.904 26.5773 119.904 29.8992C119.904 33.2212 121.78 35.264 124.845 35.264C127.291 35.264 129 34.1185 129.481 32.2571H127.448Z" fill="white"/>
<path d="M82.623 31.2247C82.7859 33.7774 84.9748 35.4099 88.2326 35.4099C91.7145 35.4099 93.8932 33.6982 93.8932 30.9674C93.8932 28.8204 92.6511 27.6332 89.6376 26.9505L88.0188 26.5646C86.1048 26.1293 85.3311 25.5455 85.3311 24.5264C85.3311 23.2402 86.5324 22.3992 88.3345 22.3992C90.0448 22.3992 91.2258 23.2204 91.4396 24.5363H93.659C93.5267 22.1321 91.348 20.4402 88.365 20.4402C85.158 20.4402 83.0201 22.1321 83.0201 24.6748C83.0201 26.7724 84.2316 28.019 86.8888 28.6226L88.7824 29.0678C90.7269 29.513 91.5821 30.166 91.5821 31.2544C91.5821 32.5208 90.2383 33.441 88.4057 33.441C86.4408 33.441 85.0766 32.5802 84.8831 31.2247H82.623Z" fill="white"/>
<path d="M60.7463 24.4963C59.2926 24.4963 58.0353 25.2027 57.387 26.3864H57.2298V24.6681H55.1966V38.5192H57.3084V33.4885H57.4754C58.0353 34.5863 59.2435 35.2354 60.766 35.2354C63.4672 35.2354 65.1861 33.1639 65.1861 29.8611C65.1861 26.5582 63.4672 24.4963 60.7463 24.4963ZM60.1471 33.393C58.3791 33.393 57.2691 32.0375 57.2691 29.8706C57.2691 27.6941 58.3791 26.3386 60.157 26.3386C61.9447 26.3386 63.0153 27.6655 63.0153 29.8611C63.0153 32.0662 61.9447 33.393 60.1471 33.393Z" fill="white"/>
<path d="M72.5759 24.4963C71.1221 24.4963 69.8648 25.2027 69.2165 26.3864H69.0594V24.6681H67.0261V38.5192H69.138V33.4885H69.3049C69.8648 34.5863 71.073 35.2354 72.5955 35.2354C75.2967 35.2354 77.0157 33.1639 77.0157 29.8611C77.0157 26.5582 75.2967 24.4963 72.5759 24.4963ZM71.9767 33.393C70.2086 33.393 69.0987 32.0375 69.0987 29.8706C69.0987 27.6941 70.2086 26.3386 71.9865 26.3386C73.7742 26.3386 74.8449 27.6655 74.8449 29.8611C74.8449 32.0662 73.7742 33.393 71.9767 33.393Z" fill="white"/>
<path d="M51.4075 35.0636H53.8306L48.5263 20.7865H46.0728L40.7686 35.0636H43.1101L44.4642 31.2742H50.0637L51.4075 35.0636ZM47.1825 23.3787H47.3556L49.4833 29.4141H45.0445L47.1825 23.3787Z" fill="white"/>
<path d="M42.187 10.0176V16.905H44.7458C46.8577 16.905 48.0806 15.6401 48.0806 13.4398C48.0806 11.2729 46.8478 10.0176 44.7458 10.0176H42.187ZM43.2871 10.9913H44.623C46.0915 10.9913 46.9608 11.8981 46.9608 13.4541C46.9608 15.034 46.1062 15.9313 44.623 15.9313H43.2871V10.9913Z" fill="white"/>
<path d="M51.8259 17.0052C53.3877 17.0052 54.3454 15.9885 54.3454 14.3037C54.3454 12.6284 53.3828 11.607 51.8259 11.607C50.2641 11.607 49.3015 12.6284 49.3015 14.3037C49.3015 15.9885 50.2592 17.0052 51.8259 17.0052ZM51.8259 16.0936C50.9075 16.0936 50.3918 15.4397 50.3918 14.3037C50.3918 13.1773 50.9075 12.5186 51.8259 12.5186C52.7394 12.5186 53.26 13.1773 53.26 14.3037C53.26 15.4349 52.7394 16.0936 51.8259 16.0936Z" fill="white"/>
<path d="M62.5011 11.7072H61.4452L60.4924 15.6735H60.4089L59.3088 11.7072H58.297L57.1969 15.6735H57.1183L56.1606 11.7072H55.09L56.5634 16.905H57.6488L58.7489 13.0771H58.8324L59.9374 16.905H61.0326L62.5011 11.7072Z" fill="white"/>
<path d="M63.7171 16.905H64.7731V13.8646C64.7731 13.0532 65.2691 12.5473 66.05 12.5473C66.8309 12.5473 67.2042 12.9625 67.2042 13.7978V16.905H68.2601V13.54C68.2601 12.3038 67.602 11.607 66.4085 11.607C65.6031 11.607 65.0727 11.9554 64.8124 12.5329H64.7338V11.7072H63.7171V16.905Z" fill="white"/>
<path d="M69.9231 16.905H70.979V9.67871H69.9231V16.905Z" fill="white"/>
<path d="M74.9503 17.0052C76.5121 17.0052 77.4698 15.9885 77.4698 14.3037C77.4698 12.6284 76.5071 11.607 74.9503 11.607C73.3885 11.607 72.4259 12.6284 72.4259 14.3037C72.4259 15.9885 73.3836 17.0052 74.9503 17.0052ZM74.9503 16.0936C74.0319 16.0936 73.5162 15.4397 73.5162 14.3037C73.5162 13.1773 74.0319 12.5186 74.9503 12.5186C75.8638 12.5186 76.3844 13.1773 76.3844 14.3037C76.3844 15.4349 75.8638 16.0936 74.9503 16.0936Z" fill="white"/>
<path d="M80.6159 16.127C80.0413 16.127 79.6239 15.8549 79.6239 15.3872C79.6239 14.929 79.9578 14.6855 80.6945 14.6378L82.0009 14.5567V14.991C82.0009 15.6354 81.4116 16.127 80.6159 16.127ZM80.3458 16.9909C81.0481 16.9909 81.6326 16.6949 81.9518 16.1747H82.0353V16.905H83.0519V13.3539C83.0519 12.2561 82.2956 11.607 80.9548 11.607C79.7417 11.607 78.8773 12.1797 78.7693 13.0723H79.7908C79.9087 12.7048 80.3163 12.4948 80.9057 12.4948C81.6277 12.4948 82.0009 12.805 82.0009 13.3539V13.8025L80.5521 13.8837C79.2801 13.96 78.563 14.4994 78.563 15.4349C78.563 16.3847 79.3144 16.9909 80.3458 16.9909Z" fill="white"/>
<path d="M86.6352 16.9909C87.3719 16.9909 87.9956 16.652 88.3149 16.084H88.3984V16.905H89.4101V9.67871H88.3542V12.5329H88.2756C87.9858 11.9602 87.367 11.6213 86.6352 11.6213C85.2846 11.6213 84.4153 12.6618 84.4153 14.3037C84.4153 15.9504 85.2748 16.9909 86.6352 16.9909ZM86.9348 12.5425C87.8188 12.5425 88.3738 13.225 88.3738 14.3085C88.3738 15.3967 87.8238 16.0697 86.9348 16.0697C86.041 16.0697 85.5056 15.4062 85.5056 14.3037C85.5056 13.2107 86.0459 12.5425 86.9348 12.5425Z" fill="white"/>
<path d="M96.2574 17.0052C97.8192 17.0052 98.7769 15.9885 98.7769 14.3037C98.7769 12.6284 97.8143 11.607 96.2574 11.607C94.6956 11.607 93.733 12.6284 93.733 14.3037C93.733 15.9885 94.6907 17.0052 96.2574 17.0052ZM96.2574 16.0936C95.339 16.0936 94.8233 15.4397 94.8233 14.3037C94.8233 13.1773 95.339 12.5186 96.2574 12.5186C97.1709 12.5186 97.6915 13.1773 97.6915 14.3037C97.6915 15.4349 97.1709 16.0936 96.2574 16.0936Z" fill="white"/>
<path d="M100.175 16.905H101.231V13.8646C101.231 13.0532 101.727 12.5473 102.508 12.5473C103.288 12.5473 103.662 12.9625 103.662 13.7978V16.905H104.718V13.54C104.718 12.3038 104.06 11.607 102.866 11.607C102.061 11.607 101.53 11.9554 101.27 12.5329H101.191V11.7072H100.175V16.905Z" fill="white"/>
<path d="M109.581 10.4137V11.7311H108.731V12.595H109.581V15.5303C109.581 16.5327 110.047 16.9336 111.221 16.9336C111.427 16.9336 111.624 16.9097 111.796 16.8811V16.0267C111.648 16.0411 111.555 16.0506 111.393 16.0506C110.868 16.0506 110.637 15.8119 110.637 15.2678V12.595H111.796V11.7311H110.637V10.4137H109.581Z" fill="white"/>
<path d="M113.213 16.905H114.269V13.8694C114.269 13.0818 114.75 12.552 115.615 12.552C116.361 12.552 116.759 12.972 116.759 13.8025V16.905H117.815V13.5496C117.815 12.3134 117.113 11.6118 115.973 11.6118C115.168 11.6118 114.603 11.9602 114.343 12.5425H114.259V9.67871H113.213V16.905Z" fill="white"/>
<path d="M121.624 12.4804C122.405 12.4804 122.916 13.0102 122.94 13.8264H120.239C120.298 13.015 120.843 12.4804 121.624 12.4804ZM122.936 15.5017C122.739 15.9074 122.302 16.1317 121.664 16.1317C120.819 16.1317 120.274 15.5542 120.239 14.6426V14.5853H124.016V14.2273C124.016 12.595 123.117 11.607 121.629 11.607C120.121 11.607 119.164 12.6618 119.164 14.3228C119.164 15.9838 120.102 17.0052 121.634 17.0052C122.857 17.0052 123.712 16.4324 123.952 15.5017H122.936Z" fill="white"/>
<path d="M29.31 23.346C29.3356 21.4128 30.4039 19.5836 32.0986 18.5711C31.0294 17.0872 29.2387 16.1464 27.3757 16.0898C25.3886 15.8871 23.4622 17.2453 22.4496 17.2453C21.4174 17.2453 19.8584 16.1099 18.1795 16.1435C15.9912 16.2122 13.9512 17.4213 12.8866 19.2805C10.598 23.1312 12.3051 28.7904 14.4973 31.903C15.5942 33.4272 16.876 35.1297 18.5534 35.0693C20.1947 35.0031 20.8077 34.0522 22.789 34.0522C24.7518 34.0522 25.327 35.0693 27.0383 35.0309C28.7996 35.0031 29.9092 33.5 30.9676 31.9614C31.7557 30.8754 32.3621 29.6751 32.7644 28.405C30.6946 27.5543 29.3124 25.53 29.31 23.346Z" fill="white"/>
<path d="M26.0775 14.0428C27.0378 12.9224 27.5109 11.4824 27.3963 10.0286C25.9292 10.1783 24.574 10.8598 23.6007 11.9371C22.649 12.9897 22.1537 14.4044 22.2473 15.8027C23.715 15.8174 25.1578 15.1544 26.0775 14.0428Z" fill="white"/>
</svg>
